<svg version="1.1" id="Layer_1" xmlns="http://www.w3.org/2000/svg" xmlns:xlink="http://www.w3.org/1999/xlink" x="0px" y="0px"
	 width="100%" viewBox="0 0 1024 672" enable-background="new 0 0 1024 672" xml:space="preserve">
<path fill="#000000" opacity="1.000000" stroke="none" 
	d="
M326.808472,272.057434 
	C345.322235,294.838318 363.546570,317.382172 381.846375,339.864655 
	C385.839569,344.770538 390.112610,349.448181 394.235657,354.249054 
	C395.841675,356.119049 396.868256,358.118500 395.439545,360.602539 
	C394.013489,363.081848 391.892609,363.834869 389.121857,363.569519 
	C374.211090,362.141327 359.398560,359.968323 344.581879,357.819580 
	C343.101898,357.604950 341.604675,357.509674 340.124146,357.297974 
	C336.819122,356.825378 335.318481,357.912201 335.202972,361.566162 
	C334.924225,370.381958 334.757477,370.369537 325.972900,370.369049 
	C316.640015,370.368500 307.307098,370.386871 297.974213,370.388733 
	C295.810577,370.389160 293.499146,370.640289 292.292511,368.229492 
	C291.080109,365.807159 292.118195,363.718323 293.455658,361.708557 
	C297.783539,355.205139 302.055237,348.669006 305.379364,341.272766 
	C302.305786,339.329315 299.103363,340.339478 296.092712,340.107513 
	C293.233826,339.887238 290.272614,339.818268 288.539062,337.088318 
	C287.179382,334.947174 287.067108,332.424377 288.921509,330.601227 
	C295.442139,324.190460 303.018005,319.146759 310.629120,313.571106 
	C312.972107,318.055511 312.806885,321.327301 309.481720,324.465759 
	C304.030243,329.611023 304.232086,330.315399 311.050659,332.656494 
	C316.848694,334.647186 317.048035,336.696472 312.787262,341.252991 
	C308.013641,346.357910 305.661682,353.041260 301.089050,359.823639 
	C309.945221,359.823639 317.527374,359.926086 325.104248,359.771179 
	C327.971436,359.712585 327.631622,357.221558 327.745911,355.249786 
	C328.147949,348.313416 328.904907,347.422485 335.833435,347.724487 
	C347.637421,348.239044 359.375946,349.565521 371.084595,351.142242 
	C372.857117,351.380951 374.646698,351.492584 377.180267,351.734894 
	C372.630585,344.236969 367.043549,338.547852 362.107056,332.368347 
	C350.147552,317.397522 338.146973,302.459595 326.175446,287.498352 
	C320.146851,279.964172 320.248932,280.028656 314.197998,287.337433 
	C300.599396,303.762939 286.898590,320.103851 273.247528,336.485962 
	C266.985168,344.001190 267.022705,343.985168 273.016693,351.421844 
	C281.799774,362.318970 290.604340,373.195984 300.014221,383.566620 
	C302.485352,386.290100 304.841217,389.177368 300.957092,392.476135 
	C297.357025,395.533630 294.447449,393.613312 291.975494,390.691681 
	C281.751617,378.607849 271.417328,366.612122 261.439911,354.327087 
	C255.380295,346.866028 255.223541,341.970398 261.264740,334.559143 
	C278.316864,313.639984 295.639526,292.939575 313.012543,272.285004 
	C317.032349,267.505890 320.979980,267.628448 326.808472,272.057434 
z"/>
<path fill="#000000" opacity="1.000000" stroke="none" 
	d="
M567.651245,330.622284 
	C567.666687,326.846313 567.752258,323.516602 567.676086,320.190643 
	C567.607422,317.195953 569.329407,316.612488 571.835205,316.646271 
	C574.233704,316.678619 576.169250,317.018829 576.162109,320.070068 
	C576.137573,330.553345 576.168640,341.036713 576.138733,351.519958 
	C576.134460,353.022491 576.051514,354.757050 574.134460,355.057220 
	C571.687378,355.440399 569.158630,355.836395 567.323059,353.348297 
	C563.668945,348.395203 559.983093,343.464111 556.220337,338.593506 
	C555.040161,337.065826 554.186096,335.142395 551.294434,334.114227 
	C551.294434,339.520294 551.282532,344.595825 551.299072,349.671295 
	C551.308472,352.569977 551.637146,355.360596 547.182678,355.360657 
	C543.011292,355.360718 542.727112,353.046448 542.752441,349.890045 
	C542.827332,340.571625 542.736206,331.251831 542.812622,321.933441 
	C542.827759,320.081512 542.063965,317.551941 544.786682,316.922546 
	C547.402405,316.317902 550.029907,316.262177 551.936462,318.954590 
	C555.012146,323.298218 558.214111,327.555542 561.464233,331.771057 
	C562.854248,333.573975 563.859253,335.775482 566.304382,336.987946 
	C568.386719,335.369415 567.379028,333.047333 567.651245,330.622284 
z"/>
<path fill="#000000" opacity="1.000000" stroke="none" 
	d="
M646.130798,315.735870 
	C654.255737,315.918427 660.734924,318.444183 664.067871,325.876923 
	C667.644043,333.852020 667.306335,341.875977 662.344421,349.178101 
	C656.434875,357.874786 641.176819,358.748932 634.083313,350.729614 
	C628.166870,344.040985 627.492615,336.025238 630.088623,327.726654 
	C632.455566,320.160522 638.090454,316.613281 646.130798,315.735870 
M656.865356,338.164398 
	C656.833679,336.172913 656.963989,334.162964 656.739380,332.193481 
	C656.116638,326.730957 652.914185,324.023712 647.334534,324.045197 
	C641.926514,324.066010 639.082581,326.509216 638.352783,332.009033 
	C638.092651,333.970123 638.120483,335.991089 638.220764,337.974365 
	C638.541199,344.309723 641.505249,347.571930 647.086365,347.885712 
	C652.869507,348.210876 655.565430,345.752380 656.865356,338.164398 
z"/>
<path fill="#000000" opacity="1.000000" stroke="none" 
	d="
M873.563416,331.600128 
	C876.456543,331.618042 877.689209,330.441193 877.660034,327.942230 
	C877.634705,325.777802 877.779907,323.606689 877.659302,321.449188 
	C877.480286,318.246948 878.397766,316.545685 882.083130,316.520355 
	C885.816650,316.494720 887.095093,317.936737 887.050537,321.525879 
	C886.932678,331.016571 886.989685,340.509918 887.041138,350.001892 
	C887.058533,353.216309 886.464111,355.392548 882.406799,355.399078 
	C878.535889,355.405304 877.387756,353.714233 877.671814,350.242645 
	C877.780151,348.919525 877.685181,347.579620 877.679688,346.247345 
	C877.651184,339.354126 877.650879,339.354126 870.801392,339.322937 
	C862.976929,339.287323 863.168274,339.294220 862.879150,347.334839 
	C862.772644,350.295471 865.001282,354.851959 859.066101,355.326874 
	C855.375916,355.622162 853.535217,354.539612 853.619812,350.407257 
	C853.820862,340.585968 853.763977,330.756683 853.636353,320.932892 
	C853.595215,317.764191 854.677307,316.400452 857.941528,316.440735 
	C861.032227,316.478882 863.258301,317.067932 862.976562,320.800385 
	C862.951660,321.131317 862.987061,321.466370 862.981079,321.799225 
	C862.782104,332.900391 862.835510,331.549652 873.563416,331.600128 
z"/>
<path fill="#000000" opacity="1.000000" stroke="none" 
	d="
M464.875549,345.939117 
	C464.872498,338.287689 464.855042,331.128113 464.875793,323.968658 
	C464.896912,316.675140 464.913361,316.661224 471.978058,316.661804 
	C475.473663,316.662079 478.994385,316.473572 482.458710,316.820496 
	C487.182831,317.293488 491.124023,319.380493 493.035309,324.033905 
	C495.056671,328.955505 494.389191,333.664764 490.519562,337.357635 
	C487.975983,339.785004 488.383301,341.761780 489.998718,344.311340 
	C492.008667,347.483643 493.776825,350.809174 495.710785,354.175385 
	C488.371124,356.516449 486.896240,355.954803 483.537445,350.047729 
	C482.221191,347.732880 480.924316,345.405640 479.544220,343.129120 
	C478.802155,341.905029 477.702026,341.204803 476.178314,341.602936 
	C474.568817,342.023529 474.285797,343.325012 474.221497,344.707733 
	C474.151917,346.203613 474.107269,347.704346 474.143188,349.200745 
	C474.223816,352.559448 474.262451,355.477051 469.374512,355.398560 
	C464.795837,355.325043 464.789093,352.605133 464.869232,349.427979 
	C464.894409,348.429535 464.876190,347.430054 464.875549,345.939117 
M474.810242,332.471924 
	C476.414276,334.176788 478.501007,333.650879 480.420135,333.561096 
	C483.097839,333.435883 484.692657,332.004700 484.795654,329.190399 
	C484.909088,326.092041 483.175110,324.755676 480.320312,324.367523 
	C474.726685,323.606903 473.803619,324.747681 474.810242,332.471924 
z"/>
<path fill="#000000" opacity="1.000000" stroke="none" 
	d="
M526.886597,354.240845 
	C521.953186,356.480133 517.234192,356.714264 512.414307,355.428986 
	C505.268616,353.523590 501.771942,349.152679 501.687378,341.791962 
	C501.607178,334.809357 501.780548,327.822815 501.632843,320.842438 
	C501.561615,317.475800 503.110748,316.568054 506.172546,316.585754 
	C509.139648,316.602844 510.365540,317.747162 510.318481,320.732086 
	C510.218933,327.048828 510.231079,333.369568 510.330231,339.686584 
	C510.423584,345.632294 512.548401,347.834930 517.920105,347.869385 
	C523.001709,347.901978 525.558105,345.300140 525.659424,339.675568 
	C525.770264,333.525269 525.816406,327.368286 525.650146,321.220734 
	C525.556641,317.761230 526.911194,316.527832 530.332397,316.546906 
	C533.873291,316.566650 534.383057,318.445679 534.343262,321.323639 
	C534.251221,327.973358 534.297302,334.625397 534.324951,341.276306 
	C534.348328,346.877411 532.261108,351.281311 526.886597,354.240845 
z"/>
<path fill="#000000" opacity="1.000000" stroke="none" 
	d="
M458.748413,353.355530 
	C454.216461,356.663879 450.851868,356.019592 449.284607,351.360535 
	C447.951447,347.397339 445.252777,346.953430 441.912628,347.249908 
	C438.539642,347.549286 434.596100,345.845184 432.818176,350.962585 
	C431.119965,355.850464 429.696594,356.104431 423.177307,354.489685 
	C423.076599,350.909546 425.050537,347.890686 426.184784,344.691071 
	C429.122223,336.404907 432.467163,328.263916 435.459961,319.996399 
	C436.647156,316.716827 439.063171,316.712555 441.832245,316.618439 
	C444.574677,316.525208 446.104309,317.542236 447.015259,320.147339 
	C450.847198,331.105835 454.804108,342.020660 458.748413,353.355530 
M441.281494,339.599915 
	C443.252563,339.605286 444.569183,339.039001 443.962189,336.663330 
	C443.321655,334.156494 442.776733,331.617523 441.132294,329.212433 
	C439.369354,331.680908 438.942108,334.304932 438.085541,336.754333 
	C437.228577,339.204773 438.600128,339.669708 441.281494,339.599915 
z"/>
<path fill="#000000" opacity="1.000000" stroke="none" 
	d="
M798.840820,324.360352 
	C795.956116,324.505829 793.299500,324.144196 793.322449,328.054932 
	C793.345398,331.964539 795.933777,331.621521 798.458130,331.642395 
	C800.288574,331.657562 802.120422,331.728607 803.949158,331.680664 
	C806.634033,331.610321 807.294189,333.126648 807.301819,335.482300 
	C807.309570,337.889801 806.502869,339.304596 803.885742,339.268097 
	C801.889526,339.240295 799.887207,339.396240 797.896423,339.295868 
	C794.830139,339.141266 793.322632,340.213379 793.292847,343.563538 
	C793.261597,347.080261 795.055969,347.781799 797.994751,347.662415 
	C800.652954,347.554382 803.321716,347.718201 805.981445,347.630157 
	C808.763428,347.538116 810.390625,348.358765 810.300781,351.556549 
	C810.220581,354.409088 808.820618,355.322266 806.225952,355.303040 
	C800.401550,355.259857 794.576233,355.262421 788.751892,355.313538 
	C786.041870,355.337280 784.799438,354.092896 784.804138,351.397522 
	C784.822083,341.079468 784.844727,330.760956 784.767029,320.443390 
	C784.745972,317.645752 786.027222,316.548889 788.676514,316.559235 
	C794.656677,316.582581 800.637024,316.557159 806.617310,316.548004 
	C809.268555,316.543945 809.405823,318.366180 809.364075,320.317780 
	C809.323975,322.189056 809.387512,324.167603 806.731750,324.251923 
	C804.237854,324.331055 801.741394,324.327057 798.840820,324.360352 
z"/>
<path fill="#000000" opacity="1.000000" stroke="none" 
	d="
M618.907349,335.062958 
	C626.543823,342.854889 624.147888,352.325165 614.165222,355.339600 
	C610.222961,356.530029 606.311768,356.451233 602.352783,355.429016 
	C596.821655,354.000946 595.882935,352.216553 597.845093,346.177368 
	C601.660583,346.960968 605.444702,348.348175 609.479736,347.876251 
	C611.528564,347.636627 613.721985,347.430695 614.291687,345.107849 
	C614.889832,342.669495 612.848755,341.540314 611.065735,340.679047 
	C608.224731,339.306732 605.214905,338.283691 602.374390,336.910370 
	C598.439636,335.007965 596.236755,331.747406 596.261292,327.372833 
	C596.286743,322.832550 598.541931,319.459381 602.640930,317.438477 
	C607.902344,314.844513 613.363464,315.121460 618.658142,317.029053 
	C622.859741,318.542847 621.153137,322.041229 620.875549,325.403564 
	C617.317261,324.774994 614.108398,324.050812 610.859131,323.689453 
	C608.691284,323.448364 606.189697,323.677307 605.598755,326.306396 
	C605.048889,328.753143 607.294800,329.707123 609.064148,330.562805 
	C612.199280,332.078979 615.417053,333.424377 618.907349,335.062958 
z"/>
<path fill="#000000" opacity="1.000000" stroke="none" 
	d="
M820.291199,322.383606 
	C825.771179,316.528107 832.326660,314.969391 839.651062,315.971588 
	C846.340393,316.886902 847.283997,318.448700 845.468445,325.586609 
	C838.560242,324.666504 830.649658,321.145294 826.315186,330.091553 
	C824.045593,334.775970 824.050354,340.109222 827.617981,344.228607 
	C832.673279,350.065796 839.048462,347.852051 844.987061,345.768921 
	C849.128540,351.449768 848.409119,353.610107 842.032288,355.381012 
	C833.327087,357.798523 824.058044,355.101746 819.492981,348.823456 
	C814.165039,341.495819 814.379700,331.473999 820.291199,322.383606 
z"/>
<path fill="#000000" opacity="1.000000" stroke="none" 
	d="
M322.144043,387.321655 
	C320.170685,387.269653 318.610413,387.477539 317.198364,387.112335 
	C313.883545,386.254974 313.793640,383.460846 313.822296,380.727844 
	C313.851959,377.903046 315.838898,377.687225 317.967804,377.686554 
	C328.433563,377.683319 338.899323,377.676453 349.365082,377.673676 
	C357.642700,377.671448 357.642792,377.673279 357.714844,369.650360 
	C357.722290,368.819824 357.759247,367.988129 357.728546,367.158966 
	C357.591675,363.465668 359.849640,362.847626 362.907349,362.842438 
	C366.098724,362.836975 367.388550,364.222717 367.308441,367.372131 
	C367.194397,371.854340 367.244354,376.342468 367.305328,380.826935 
	C367.368683,385.485748 365.019531,387.340942 360.500427,387.313812 
	C347.875580,387.237976 335.249878,387.308441 322.144043,387.321655 
z"/>
<path fill="#000000" opacity="1.000000" stroke="none" 
	d="
M673.122253,320.338501 
	C673.303833,317.666626 674.444519,316.638123 676.692200,316.652679 
	C682.675171,316.691467 688.659180,316.704468 694.641602,316.627625 
	C697.522583,316.590668 698.294922,318.068909 698.329712,320.679810 
	C698.368530,323.591980 696.939941,324.447296 694.329773,324.365906 
	C691.839539,324.288269 689.343445,324.416870 686.851379,324.373932 
	C683.976746,324.324402 682.188599,324.994446 682.218140,328.544250 
	C682.247498,332.078705 683.975708,332.776031 686.897278,332.629303 
	C688.720886,332.537750 690.553955,332.654633 692.380615,332.602203 
	C695.082336,332.524719 696.270813,333.737427 696.279419,336.487823 
	C696.287903,339.207489 695.203430,340.233704 692.456116,340.417755 
	C682.806885,341.064240 682.722168,341.149384 682.319153,350.765106 
	C682.191101,353.818970 681.261963,355.290863 677.971130,355.350281 
	C674.561157,355.411804 673.084045,354.083862 673.095886,350.717529 
	C673.130859,340.745819 673.091919,330.773834 673.122253,320.338501 
z"/>
<path fill="#000000" opacity="1.000000" stroke="none" 
	d="
M712.963562,351.664734 
	C712.919373,344.044098 712.714417,336.882446 712.959290,329.736176 
	C713.101379,325.589569 711.611633,323.997070 707.495117,324.297424 
	C705.657837,324.431488 703.378967,325.039673 702.121521,322.779846 
	C700.476746,319.823883 702.223511,316.707855 705.756836,316.658936 
	C713.575989,316.550659 721.398132,316.684357 729.218384,316.627930 
	C731.881897,316.608734 733.182251,317.577332 733.210510,320.400574 
	C733.241699,323.514435 731.702209,324.306274 728.880676,324.396576 
	C722.111145,324.613251 722.112000,324.716888 722.096924,331.360565 
	C722.082153,337.850128 722.109436,344.340057 722.039856,350.828979 
	C722.018311,352.837921 721.956116,355.104950 719.134644,355.189087 
	C716.619812,355.264008 713.499939,356.218689 712.963562,351.664734 
z"/>
<path fill="#000000" opacity="1.000000" stroke="none" 
	d="
M333.955383,327.027283 
	C330.759613,323.730713 328.318024,320.408966 324.208801,318.297150 
	C321.257629,316.780426 318.385345,313.197723 318.416992,309.202454 
	C318.439117,306.406464 318.670380,302.478973 322.543396,302.185516 
	C326.398010,301.893494 330.015442,303.474579 332.420898,306.888885 
	C332.798615,307.425018 333.297272,308.060272 333.298218,308.650391 
	C333.318085,321.190430 344.430817,326.332275 350.680542,334.693298 
	C353.410797,338.345917 357.429810,340.989838 359.648071,345.572632 
	C355.439209,347.662598 351.830627,347.993774 348.706451,344.367798 
	C343.830231,338.708344 339.020599,332.991547 333.955383,327.027283 
z"/>
<path fill="#000000" opacity="1.000000" stroke="none" 
	d="
M765.863525,355.151276 
	C761.004944,355.963013 759.443481,354.099091 759.622986,349.698425 
	C759.894409,343.045288 759.500854,336.365479 759.756653,329.711090 
	C759.917236,325.533539 758.347656,323.896729 754.249634,324.334808 
	C750.870483,324.696014 748.172974,324.127686 748.732483,319.653412 
	C748.949341,317.918976 749.572205,316.746277 751.430176,316.740479 
	C760.536865,316.712097 769.643799,316.727631 778.668152,316.727631 
	C779.969788,323.816437 779.840149,324.227905 773.544128,324.313721 
	C769.374207,324.370575 768.112061,326.023163 768.283813,330.044373 
	C768.567932,336.696777 768.423035,343.370300 768.346924,350.033630 
	C768.325623,351.903656 768.983276,354.205353 765.863525,355.151276 
z"/>
<path fill="#000000" opacity="1.000000" stroke="none" 
	d="
M272.440674,298.449646 
	C270.115234,295.478149 270.238647,292.905579 272.953796,290.849457 
	C275.217926,289.134888 277.631195,289.382538 279.648346,291.413055 
	C281.344757,293.120728 281.731903,295.165955 280.306000,297.238708 
	C278.297546,300.158173 275.775452,300.904816 272.440674,298.449646 
z"/>
</svg>